<svg width="160" height="25" viewBox="0 0 160 25" fill="none" xmlns="http://www.w3.org/2000/svg">
<path d="M65.7294 20V5.6H68.6294L73.8494 11.82L79.0494 5.6H81.9694V20H79.3094V9.44L73.8494 15.94L68.3694 9.46V20H65.7294ZM85.9441 24.3V21.66H92.9241C92.9907 21.66 93.0441 21.6333 93.0841 21.58C93.1374 21.54 93.1641 21.4867 93.1641 21.42V20H86.7641C86.2707 20 85.8107 19.8733 85.3841 19.62C84.9707 19.3667 84.6374 19.0333 84.3841 18.62C84.1307 18.2067 84.0041 17.7467 84.0041 17.24V8.44H86.6241V17.14C86.6241 17.2067 86.6441 17.2667 86.6841 17.32C86.7374 17.36 86.7974 17.38 86.8641 17.38H92.9241C92.9907 17.38 93.0441 17.36 93.0841 17.32C93.1374 17.2667 93.1641 17.2067 93.1641 17.14V8.44H95.7841V21.54C95.7841 22.0467 95.6641 22.5067 95.4241 22.92C95.1841 23.3467 94.8507 23.68 94.4241 23.92C94.0107 24.1733 93.5507 24.3 93.0441 24.3H85.9441ZM100.695 20C100.189 20 99.7221 19.8733 99.2955 19.62C98.8821 19.3667 98.5488 19.0333 98.2955 18.62C98.0421 18.1933 97.9155 17.7267 97.9155 17.22V16.12H100.555V17.1C100.555 17.1667 100.575 17.2267 100.615 17.28C100.669 17.32 100.729 17.34 100.795 17.34H109.415C109.482 17.34 109.535 17.32 109.575 17.28C109.629 17.2267 109.655 17.1667 109.655 17.1V14.36C109.655 14.2933 109.629 14.24 109.575 14.2C109.535 14.16 109.482 14.14 109.415 14.14H100.695C100.189 14.14 99.7221 14.0133 99.2955 13.76C98.8821 13.5067 98.5488 13.1733 98.2955 12.76C98.0421 12.3333 97.9155 11.86 97.9155 11.34V8.38C97.9155 7.87333 98.0421 7.41333 98.2955 7C98.5488 6.57333 98.8821 6.23333 99.2955 5.98C99.7221 5.72667 100.189 5.6 100.695 5.6H109.535C110.042 5.6 110.502 5.72667 110.915 5.98C111.342 6.23333 111.682 6.57333 111.935 7C112.189 7.41333 112.315 7.87333 112.315 8.38V9.48H109.655V8.5C109.655 8.43333 109.629 8.38 109.575 8.34C109.535 8.28667 109.482 8.26 109.415 8.26H100.795C100.729 8.26 100.669 8.28667 100.615 8.34C100.575 8.38 100.555 8.43333 100.555 8.5V11.24C100.555 11.3067 100.575 11.36 100.615 11.4C100.669 11.44 100.729 11.46 100.795 11.46H109.535C110.042 11.46 110.502 11.5867 110.915 11.84C111.342 12.0933 111.682 12.4333 111.935 12.86C112.189 13.2733 112.315 13.74 112.315 14.26V17.22C112.315 17.7267 112.189 18.1933 111.935 18.62C111.682 19.0333 111.342 19.3667 110.915 19.62C110.502 19.8733 110.042 20 109.535 20H100.695ZM117.199 20C116.692 20 116.232 19.8733 115.819 19.62C115.406 19.3667 115.072 19.0333 114.819 18.62C114.566 18.2067 114.439 17.7467 114.439 17.24V4.84H117.059V8.4H121.579V11.02H117.059V17.14C117.059 17.2067 117.079 17.2667 117.119 17.32C117.172 17.36 117.232 17.38 117.299 17.38H121.579V20H117.199ZM125.928 20C125.422 20 124.962 19.8733 124.548 19.62C124.135 19.3667 123.802 19.0333 123.548 18.62C123.295 18.2067 123.168 17.7467 123.168 17.24V11.16C123.168 10.6533 123.295 10.1933 123.548 9.78C123.802 9.36667 124.135 9.03333 124.548 8.78C124.962 8.52667 125.422 8.4 125.928 8.4H132.188C132.695 8.4 133.155 8.52667 133.568 8.78C133.995 9.03333 134.328 9.36667 134.568 9.78C134.822 10.1933 134.948 10.6533 134.948 11.16V17.24C134.948 17.7467 134.822 18.2067 134.568 18.62C134.328 19.0333 134.002 19.3667 133.588 19.62C133.175 19.8733 132.708 20 132.188 20H125.928ZM126.028 17.38H132.088C132.155 17.38 132.208 17.36 132.248 17.32C132.302 17.2667 132.328 17.2067 132.328 17.14V11.26C132.328 11.1933 132.302 11.14 132.248 11.1C132.208 11.0467 132.155 11.02 132.088 11.02H126.028C125.962 11.02 125.902 11.0467 125.848 11.1C125.808 11.14 125.788 11.1933 125.788 11.26V17.14C125.788 17.2067 125.808 17.2667 125.848 17.32C125.902 17.36 125.962 17.38 126.028 17.38ZM136.606 20V11.16C136.606 10.6533 136.733 10.1933 136.986 9.78C137.24 9.36667 137.573 9.03333 137.986 8.78C138.413 8.52667 138.873 8.4 139.366 8.4H145.806V11.02H139.466C139.4 11.02 139.34 11.0467 139.286 11.1C139.246 11.14 139.226 11.1933 139.226 11.26V20H136.606ZM149.932 20C149.426 20 148.966 19.8733 148.552 19.62C148.139 19.3667 147.806 19.0333 147.552 18.62C147.299 18.2067 147.172 17.7467 147.172 17.24V11.16C147.172 10.6533 147.299 10.1933 147.552 9.78C147.806 9.36667 148.139 9.03333 148.552 8.78C148.966 8.52667 149.426 8.4 149.932 8.4H156.192C156.699 8.4 157.159 8.52667 157.572 8.78C157.999 9.03333 158.332 9.36667 158.572 9.78C158.826 10.1933 158.952 10.6533 158.952 11.16V15.52H149.792V17.14C149.792 17.2067 149.812 17.2667 149.852 17.32C149.906 17.36 149.966 17.38 150.032 17.38H158.952V20H149.932ZM149.792 13.16H156.332V11.26C156.332 11.1933 156.306 11.14 156.252 11.1C156.212 11.0467 156.159 11.02 156.092 11.02H150.032C149.966 11.02 149.906 11.0467 149.852 11.1C149.812 11.14 149.792 11.1933 149.792 11.26V13.16Z" fill="black"/>
<path d="M3.01687 13C13.7094 33.1077 37.7674 -10.1021 53.8062 13C69.8449 36.1022 -7.67561 -7.10762 3.01687 13Z" stroke="#97DBAE" stroke-width="3"/>
</svg>
